<svg xmlns="http://www.w3.org/2000/svg" viewBox="0 0 48 48" shape-rendering="crispEdges">
  <!-- Cute water drop -->
  <path fill="#17333d" d="M23 3h6v4h4v5h4v6h4v10h-3v7h-5v5h-7v4h-8v-3h-6v-5H8v-8H5v-9h4v-7h4v-5h4V3z"/>
  <path fill="#43cfe3" d="M24 7h4v4h4v5h4v7h3v5h-4v6h-5v4h-7v3h-6v-4h-5v-6H9v-7h4v-6h4v-5h4V7z"/>
  <path fill="#8ee7ef" d="M20 12h4v4h-3v5h-4v-5h3z"/>
  <!-- Friendly face -->
  <path fill="#17333d" d="M18 26h3v3h-3zM29 26h3v3h-3zM21 32h8v3h-3v2h-3v-2h-2z"/>
  <path fill="#dffcff" d="M18 16h3v5h-3z"/>
  <!-- Sparkles -->
  <path fill="#f4df55" d="M39 7h3v4h2v3h-2v4h-3v-4h-2v-3h2zM7 15h3v3h2v2h-2v3H7v-3H5v-2h2z"/>
</svg>
